<svg version="1.1" id="Layer_1" xmlns="http://www.w3.org/2000/svg" x="0" y="0" viewBox="0 0 382.9 85.5" xml:space="preserve"><style>.st0{fill:#2263ab}</style><path class="st0" d="M240.3 44.1c1.4-8.9 9.5-15.2 19-15.2 4.6 0 8.9 1.8 11.9 5.1l-5.6 4.6c-1.6-2.1-4.3-3.5-7.3-3.5-5.7 0-10.1 3.7-11 9-.8 5.3 2.4 9 8.2 9 2.8 0 5.8-1.1 8.7-3.7l4 4.6c-4.2 3.4-9 5.3-13.8 5.3-9.5 0-15.5-6.2-14.1-15.2M283.3 16.2l-6.7 42.4h-6.9l6.7-42.4zM281 44.1c1.5-9 9.4-15.2 18.9-15.2s15.6 6.2 14.1 15.2c-1.4 9-9.5 15.2-19 15.2-9.4 0-15.4-6.2-14-15.2m25.9 0c.9-5.4-2.4-9-8-9-5.7 0-10.1 3.7-10.9 9-.9 5.4 2.4 9 8 9s10.1-3.6 10.9-9M315.4 47.2l2.8-17.6h6.8l-2.7 17.2c-.6 4 1.6 6.3 6 6.3 4 0 8.4-2.3 9.1-6.6l2.7-16.8h6.8l-4.6 29h-6.8l.2-1.4c-2.6 1.6-5.7 2.1-9.3 2.1-7.4-.1-12.1-4.8-11-12.2M373.7 31.7l2.4-15.5h6.8l-6.7 42.4h-6.6l.4-2.6c-2.7 2.1-6.2 3.3-10.1 3.3-8.7 0-15-6.2-13.6-15.2 1.5-9 9.6-15.2 18.7-15.2 3.6 0 6.6 1 8.7 2.8m-1.6 12.4c.9-5.4-2.4-9-7.9-9-5.7 0-10 3.7-10.9 9-.9 5.4 2.3 9 8 9 5.6 0 10-3.6 10.8-9M121.9 53.2c-5.8 0-9-3.7-8.2-9 .9-5.4 5.3-9 11-9 3 0 5.7 1.4 7.3 3.5l5.6-4.6c-3-3.4-7.3-5.1-11.9-5.1-9.4 0-17.6 6.3-19 15.2-1.4 9 4.6 15.2 14.1 15.2 4.8 0 9.6-1.9 13.8-5.3l-4-4.6c-2.9 2.6-5.9 3.7-8.7 3.7M159.5 29.3s-1.2-.2-1.3-.2c-1.3-.2-2.7-.1-4 0-1.2.1-2.4.3-3.6.7-1 .3-2.1.7-3 1.3l.2-1.4H141l-4.6 29h6.8l2.7-16.9c.1-1 .5-1.9 1-2.7.5-.8 1.2-1.5 2-2 .8-.6 1.6-1 2.5-1.3.9-.3 1.8-.5 2.8-.6 1.3-.1 2.7 0 4 .3h.1c.2 0 1.2-6.2 1.2-6.2M183.3 31.5c-1.9-1.6-4.8-2.5-8.2-2.5-8.5 0-16.2 6.1-17.7 15.1-1.4 9 4.5 15.1 12.7 15.1 3.7 0 6.8-.5 9.4-2.3l-.2 1.6h6.2l4.5-28.8h-6.4l-.3 1.8zm-1.4 12.6c-.9 5.5-5 9.3-10.3 9.3-5.4 0-8.5-4-7.6-9.4.9-5.4 5.2-9.2 10.5-9.2 5.3.1 8.2 3.9 7.4 9.3M221.4 29.7l1.3-8.2-7.8 5.6-.4 2.7h-8.8l.9-5.5c.5-2.6 3.3-2.5 3.3-2.5h3.3l1-6h-4.7c-9.3 0-9.6 7.2-9.6 7.2l-.6 3.4-.5 3.4h-.6l-7.6 6h7.2l-4.6 29.4h7l4.6-29.4h8.8l-3.6 23h6.9l3.6-23h8.6l1-6h-8.7zM76.5 0H9C4 0 0 4 0 9v67.5c0 5 4 9 9 9h67.5c5 0 9-4 9-9V9c0-5-4-9-9-9zM56.9 58.3H29.2c-5.7 0-9.6-3.8-9.6-8.4 0-3.9 2.8-7.8 6.8-8.4 0-6.7 6.2-9.6 10.7-7.3 1.7-3.4 5.3-6.2 10.2-6.2 7 0 12 6.3 11.3 12.5 4.1.8 7.3 4.5 7.3 8.8 0 5-4.1 9-9 9z"/></svg>